<svg xmlns="http://www.w3.org/2000/svg" width="857" height="188" viewBox="0 0 857 188" fill="none"><path d="M842.026 141.501L810.726 107.501L838.726 75.3006L821.026 75.4006L796.326 107.701L822.226 141.601L842.026 141.501ZM778.726 141.801L792.826 141.701L792.426 47.1006L778.326 47.2006L778.726 141.801ZM709.626 142.001H723.726L723.626 114.701C723.526 99.1006 732.526 86.4006 743.726 86.4006C751.126 86.4006 756.026 91.0006 756.026 98.0006L756.226 141.801L770.226 141.701L770.026 95.0006C769.926 82.7006 759.726 74.6006 744.426 74.7006C735.726 74.7006 728.026 81.3006 723.326 91.3006L722.426 75.8006L709.226 75.9006L709.626 142.001ZM651.126 109.201C651.126 96.4006 657.126 87.8006 666.126 87.7006L683.026 87.6006L683.126 108.001C683.226 120.901 675.626 131.401 666.326 131.501C657.226 131.601 651.126 122.701 651.126 109.201ZM636.526 109.301C636.626 129.701 647.426 143.301 663.626 143.201C672.226 143.201 679.826 136.901 684.326 127.501L685.126 141.701L697.926 142.401C697.926 142.401 697.326 131.901 697.326 124.101L697.126 75.8006L684.826 75.9006L683.126 86.8006L676.026 75.9006L663.326 76.0006C647.126 76.2006 636.426 89.4006 636.526 109.301ZM586.226 60.9006H596.626C607.226 60.8006 614.426 65.5006 614.426 72.5006C614.426 81.8006 607.326 88.1006 596.726 88.2006H586.326L586.226 60.9006ZM586.426 99.8006L600.326 99.7006C611.026 99.7006 618.126 106.601 618.126 117.201C618.226 125.401 611.126 130.901 600.426 130.901L586.526 131.001L586.426 99.8006ZM571.626 142.701L602.726 142.601C620.926 142.501 633.126 132.301 633.026 117.201C633.026 105.301 621.926 95.5006 608.126 93.4006C619.326 90.1006 627.626 81.9006 627.626 72.4006C627.526 58.4006 615.326 49.1006 597.126 49.2006L571.326 49.3006L571.626 142.701ZM501.226 143.001L515.326 142.901L515.226 116.601C515.126 100.501 524.126 87.4006 535.326 87.3006C542.726 87.2006 547.626 91.9006 547.726 98.9006L547.926 142.701L562.026 142.601L561.826 95.9006C561.726 83.6006 551.526 75.5006 536.226 75.5006C527.526 75.6006 519.926 82.1006 515.226 92.3006L515.026 48.2006L500.926 48.3006L501.226 143.001ZM445.726 139.701C451.326 142.001 459.626 144.101 465.926 144.101C484.226 144.001 494.026 136.801 493.926 123.501C493.826 109.301 481.826 105.701 471.526 102.701C464.526 100.601 458.726 97.7006 458.626 93.5006C458.626 89.5006 463.226 87.3006 471.826 87.2006C478.526 87.2006 484.526 89.7006 489.426 93.5006L489.326 77.9006C483.726 76.4006 478.226 75.8006 472.626 75.8006C454.926 75.9006 445.426 82.2006 445.426 93.8006C445.526 109.101 458.026 112.901 468.426 115.901C475.626 118.001 480.726 120.601 480.726 125.001C480.726 129.901 476.526 132.601 467.526 132.701C461.026 132.701 452.426 129.801 445.526 124.401L445.726 139.701ZM389.026 110.401C388.926 97.5006 394.926 89.0006 404.026 88.9006L420.926 88.8006L421.026 109.201C421.126 122.101 413.526 132.601 404.326 132.601C395.126 132.801 389.126 123.901 389.026 110.401ZM374.426 110.501C374.526 130.901 385.326 144.501 401.426 144.501C410.126 144.401 417.626 138.201 422.126 128.801L422.926 143.001L435.726 143.701C435.726 143.701 435.126 133.201 435.126 125.401L434.926 77.1006L422.626 77.2006L420.926 88.1006L413.826 77.2006L401.226 77.3006C385.026 77.3006 374.326 90.6006 374.426 110.501ZM297.426 143.901L311.526 143.801L325.426 98.8006L339.726 143.601L353.826 143.501L374.626 77.2006L356.726 77.3006L346.826 132.001L332.926 77.4006L318.126 77.5006L304.626 132.301L293.926 77.7006L276.026 77.8006L297.426 143.901ZM234.026 113.701L247.526 62.6006L261.526 113.501L234.026 113.701ZM210.126 144.301L225.926 144.201L231.126 124.701L264.526 124.601L269.826 144.001L285.626 143.901L255.226 50.7006L239.726 50.8006L210.126 144.301Z" fill="#21205F"></path><path d="M169.026 110.401C168.626 109.501 168.026 108.801 167.526 108.001C166.926 107.201 166.326 106.501 165.626 105.901C164.926 105.301 164.126 104.901 163.126 104.501C162.326 104.301 161.326 104.201 160.326 104.301C158.426 104.501 156.526 105.201 154.826 106.001C151.326 107.701 148.026 109.901 144.826 112.201C141.626 114.501 138.526 116.901 135.426 119.301L127.026 125.801C124.226 128.001 121.326 130.001 118.526 132.101C115.626 134.101 112.726 136.201 109.726 138.001L105.226 140.801L100.526 143.301C97.4259 145.101 94.0259 146.401 90.7259 147.901L85.7259 149.701L83.2259 150.601L80.5259 151.301L75.2259 152.601C73.4259 153.001 71.6259 153.201 69.8259 153.601C66.2259 154.301 62.6259 154.501 59.0259 154.801C55.4259 154.901 51.8259 155.101 48.2259 155.001L42.8259 154.901L37.4259 154.501C36.9259 154.501 36.5259 154.401 36.0259 154.401C56.8259 169.401 84.1259 175.301 110.926 168.001C139.726 160.201 161.226 139.101 170.426 113.201C170.026 112.401 169.526 111.401 169.026 110.401Z" fill="#21205F"></path><path d="M172.526 68.7007C171.926 68.7007 170.926 68.8007 170.026 69.1007C168.226 69.6007 166.326 70.5007 164.426 71.5007C160.626 73.5007 157.026 76.1007 153.426 78.6007L142.526 86.4007C138.826 89.0007 135.126 91.5007 131.426 94.0007C129.526 95.2007 127.626 96.3007 125.726 97.5007C123.826 98.7007 121.826 99.7007 119.826 100.801C117.926 101.901 115.826 102.901 113.826 103.901C111.826 104.901 109.826 105.901 107.726 106.601C105.626 107.401 103.626 108.401 101.426 109.001L94.9259 111.001L88.3259 112.501C86.1259 113.001 83.9259 113.201 81.7259 113.501C79.5259 113.901 77.2259 114.001 75.0259 114.101C72.7259 114.301 70.5259 114.401 68.3259 114.301C66.0259 114.301 63.8259 114.401 61.6259 114.301C59.3259 114.201 57.1259 114.201 54.9259 114.001C50.4259 113.701 46.0259 113.401 41.5259 112.901L28.2259 111.501C23.8259 111.101 19.3259 110.701 14.9259 110.801C12.7259 110.801 10.5259 111.001 8.5259 111.501C7.5259 111.701 6.7259 112.001 5.9259 112.501C9.5259 123.201 15.1259 132.701 22.1259 140.801C22.5259 140.901 22.8259 140.901 23.2259 140.901C28.0259 141.601 32.8259 142.201 37.6259 142.701C42.4259 143.201 47.2259 143.601 52.0259 143.701C54.4259 143.701 56.8259 143.801 59.2259 143.701C61.6259 143.601 64.0259 143.501 66.3259 143.301C68.6259 143.001 71.0259 142.701 73.3259 142.401L80.3259 140.901L87.1259 138.801C89.3259 138.001 91.5259 137.001 93.7259 136.101C95.9259 135.101 98.0259 134.001 100.126 133.001C102.226 131.901 104.326 130.601 106.426 129.501C110.526 127.001 114.526 124.401 118.426 121.601C122.326 118.801 126.226 115.901 130.026 113.001C133.926 110.101 137.826 107.201 141.926 104.401C146.026 101.701 150.326 99.1007 155.226 97.7007C157.626 97.1007 160.326 96.8007 162.926 97.3007C165.426 97.8007 167.926 99.0007 169.726 100.801C170.626 101.701 171.526 102.601 172.326 103.601C174.826 92.5007 175.026 80.7007 172.626 68.9007C172.526 68.7007 172.526 68.7007 172.526 68.7007Z" fill="#21205F"></path><path d="M34.6259 103.001C39.5259 103.601 44.4259 104.101 49.2259 104.601C54.1259 105.001 58.9259 105.301 63.8259 105.401C66.2259 105.401 68.7259 105.401 71.1259 105.301C73.5259 105.101 75.9259 105.001 78.3259 104.801C80.7259 104.401 83.1259 104.201 85.4259 103.701L92.3259 102.101L99.3259 99.8007C101.526 98.9007 103.626 97.9007 105.826 97.0007C108.026 96.0007 110.126 94.8007 112.226 93.7007C114.326 92.6007 116.426 91.2007 118.426 90.0007C122.526 87.4007 126.426 84.7007 130.326 81.8007C133.326 79.6007 136.226 77.3007 139.226 75.0007C135.126 76.3007 131.126 77.4007 127.326 78.5007L126.826 78.6007C125.826 78.8007 124.926 79.0007 123.926 79.3007C121.926 79.8007 119.926 80.3007 117.726 80.7007L117.326 80.8007C116.426 80.9007 115.426 81.1007 114.526 81.3007C112.526 81.7007 110.526 82.0007 108.326 82.4007L107.726 82.5007C106.726 82.6007 105.726 82.7007 104.726 82.8007C102.826 83.0007 100.926 83.2007 98.9259 83.4007L97.9259 83.5007L88.2259 83.7007L78.1259 83.0007C76.1259 82.8007 74.1259 82.5007 72.1259 82.2007C71.1259 82.1007 70.2259 81.9007 69.2259 81.8007L68.6259 81.7007C66.5259 81.3007 64.6259 80.9007 62.7259 80.5007C61.7259 80.3007 60.7259 80.1007 59.7259 79.9007L59.3259 79.8007C57.2259 79.3007 55.2259 78.7007 53.3259 78.2007C52.3259 77.9007 51.4259 77.6007 50.4259 77.4007L49.9259 77.3007C44.3259 75.6007 38.5259 73.6007 32.4259 71.3007C26.4259 69.0007 20.6259 66.6007 15.6259 64.6007C14.2259 64.0007 11.8259 63.0007 8.82592 61.7007C7.32592 61.1007 5.72592 60.4007 3.92592 59.7007C-0.474076 73.5007 -1.27408 88.6007 2.02592 103.601C2.82592 103.301 3.62592 103.001 4.42592 102.801C9.62592 101.501 14.7259 101.601 19.7259 101.901C24.8259 101.901 29.7259 102.401 34.6259 103.001Z" fill="#F7923A"></path><path d="M65.3259 16.3007C75.2259 26.2007 96.1259 42.6007 151.426 27.5007C135.526 10.5007 112.726 -0.0992986 87.4259 0.000701374C77.2259 0.000701374 67.4259 1.80069 58.4259 5.10069C59.6259 8.80069 61.7259 12.7007 65.3259 16.3007Z" fill="#F7923A"></path><path d="M165.826 48.4007C164.526 45.8007 163.126 43.3007 161.626 40.8007C144.626 43.8007 129.326 45.4007 115.826 45.4007C87.626 45.5007 67.126 39.2007 54.626 26.4007C49.826 21.5007 46.826 16.2007 44.926 11.2007C29.926 19.6007 17.726 32.4007 10.126 47.8007C26.826 58.2007 87.826 89.0007 165.826 48.4007Z" fill="#F7923A"></path><path d="M294.926 49.7007C295.526 50.2007 295.926 50.8007 295.926 51.3007C295.926 51.6007 295.526 51.8007 294.826 52.0007C291.826 52.4007 289.626 52.6007 288.326 52.6007C287.626 52.6007 287.026 52.2007 286.326 51.3007C285.926 50.7007 285.526 48.6007 285.026 44.9007C284.526 40.8007 283.926 38.1007 283.226 36.7007C282.326 34.7007 281.026 33.6007 279.426 33.6007C278.926 33.6007 278.226 33.7007 277.526 34.0007C276.826 34.8007 275.726 36.8007 274.226 40.1007C272.626 43.6007 271.726 46.3007 271.726 48.4007C271.726 49.4007 272.026 49.9007 272.526 50.1007C273.326 50.4007 273.626 50.6007 273.726 50.8007C273.726 51.1007 273.326 51.3007 272.426 51.4007C269.926 51.8007 267.326 51.9007 264.526 52.0007C263.026 52.1007 262.326 51.1007 262.226 49.3007C262.226 46.1007 263.926 41.7007 267.526 36.1007C268.126 35.1007 269.726 33.0007 272.126 29.7007C274.326 26.7007 275.626 25.1007 275.926 24.8007H275.826C275.226 24.8007 274.326 24.9007 273.226 25.2007C272.026 25.4007 271.126 25.6007 270.526 25.6007C269.526 25.6007 269.026 25.5007 268.826 25.1007C268.526 24.6007 268.426 23.6007 268.426 22.0007C268.426 22.2007 268.426 22.2007 268.526 21.9007V19.4007C268.526 17.0007 268.226 15.7007 267.626 15.5007C266.826 15.1007 266.426 14.9007 266.426 14.6007C266.426 14.3007 267.826 13.9007 270.726 13.5007C273.026 13.2007 274.326 13.0007 274.426 13.0007C276.026 13.0007 276.826 13.5007 276.826 14.4007C276.826 14.7007 276.926 15.0007 276.926 15.4007V17.6007C276.926 20.2007 277.126 22.4007 277.526 24.0007L279.326 23.8007C279.626 23.8007 280.426 23.6007 281.526 23.4007C282.526 23.2007 283.226 23.1007 283.726 23.2007C284.426 23.2007 284.726 23.3007 284.726 23.6007C284.726 24.0007 283.826 25.3007 282.126 27.5007C280.326 29.8007 279.126 31.5007 278.726 32.5007C278.626 32.6007 278.726 32.6007 278.926 32.6007C279.826 32.6007 281.226 32.3007 283.126 31.8007C284.926 31.2007 286.326 31.0007 287.326 31.0007C287.826 31.0007 288.226 31.0007 288.526 31.1007C291.126 32.0007 292.826 36.8007 293.626 45.4007C293.826 47.5007 293.926 48.7007 293.926 48.8007C293.926 48.9007 294.326 49.2007 294.926 49.7007Z" fill="#F7923A"></path><path d="M323.226 16.7006C322.926 16.7006 322.626 16.7006 322.526 16.8006C322.326 17.1006 322.026 19.6006 321.526 24.3006L320.826 31.8006C321.126 31.9006 321.426 32.0006 321.826 32.0006C322.626 32.0006 323.326 31.7006 324.026 31.1006C325.726 29.6006 326.526 26.6006 326.526 22.2006V21.3006C326.326 18.2006 325.326 16.7006 323.226 16.7006ZM309.126 21.6006C308.226 23.5006 307.726 25.7006 307.826 28.2006C307.826 29.7006 307.926 30.6006 308.026 31.0006C308.326 32.0006 309.026 32.5006 310.126 32.5006C311.226 32.5006 312.026 32.1006 312.626 31.2006C313.426 25.1006 314.026 20.6006 314.326 17.4006C311.926 17.9006 310.226 19.3006 309.126 21.6006ZM333.026 29.5006C331.526 31.3006 329.626 32.5006 327.326 33.1006C325.726 33.5006 324.526 33.7006 323.726 33.7006C323.226 33.7006 322.126 33.6006 320.426 33.3006C319.326 40.9006 318.726 45.4006 318.526 47.0006C318.426 47.9006 318.426 48.7006 318.626 49.2006C318.626 49.3006 318.826 49.5006 319.126 49.8006C319.426 50.1006 319.526 50.3006 319.526 50.4006C319.526 50.8006 319.026 51.0006 318.026 51.1006C315.226 51.4006 313.526 51.6006 313.026 51.6006C311.026 51.6006 310.026 50.9006 310.026 49.5006C310.026 48.1006 310.326 45.3006 311.026 41.0006C311.726 36.5006 312.026 34.0006 312.026 33.5006C309.926 34.3006 308.026 34.7006 306.226 34.7006C301.526 34.7006 299.226 32.4006 299.226 27.7006C299.226 23.8006 300.826 20.8006 304.026 18.8006C306.626 17.1006 310.026 16.1006 314.426 15.8006C316.826 15.6006 319.526 15.5006 322.426 15.4006C323.726 15.2006 324.926 15.1006 326.226 15.1006C327.426 15.1006 328.526 15.2006 329.426 15.4006C331.226 15.9006 332.626 16.8006 333.626 18.3006C334.626 19.8006 335.126 21.4006 335.126 23.3006C335.226 25.6006 334.526 27.7006 333.026 29.5006Z" fill="#F7923A"></path><path d="M371.426 16.7006C367.726 16.7006 365.626 15.6006 365.126 13.3006L361.726 13.5006C361.726 14.1006 362.326 15.3006 363.726 17.1006C364.926 18.7006 365.726 19.7006 366.026 20.0006C366.926 20.9006 368.026 21.5006 369.226 21.7006C371.526 22.7006 372.726 24.6006 372.726 27.4006C372.726 28.2006 372.626 29.0006 372.526 29.8006C371.326 37.5006 370.726 42.6006 370.726 45.2006V45.6006C370.826 46.4006 370.926 47.4006 371.226 48.5006C371.526 50.0006 371.826 50.7006 372.026 50.7006C372.126 50.7006 372.126 50.6006 372.126 50.3006C372.126 50.6006 371.626 50.8006 370.626 50.9006L366.026 51.3006C364.626 51.3006 363.626 50.7006 363.126 49.3006C362.926 48.8006 362.826 48.0006 362.826 46.9006C362.826 45.6006 362.926 44.6006 363.026 43.8006C363.426 40.6006 363.726 37.8006 364.026 35.6006L364.526 31.8006C365.026 27.9006 365.226 25.8006 365.226 25.6006C365.226 23.1006 364.426 21.9006 362.726 22.0006C361.226 22.1006 359.926 23.5006 358.626 26.2006C357.626 28.4006 357.026 30.4006 356.726 32.2006C356.226 35.6006 355.826 40.0006 355.526 45.3006C355.426 47.5006 355.626 48.8006 356.426 49.3006C356.826 49.7006 357.126 49.9006 357.126 50.0006C357.126 50.3006 356.626 50.5006 355.626 50.6006C353.026 50.9006 351.426 51.0006 350.826 51.0006C349.426 51.0006 348.526 50.5006 348.026 49.4006C347.826 48.9006 347.726 47.9006 347.726 46.2006C347.726 42.7006 348.026 38.8006 348.526 34.5006C348.926 31.2006 349.926 28.6006 351.326 26.6006C352.726 24.8006 354.926 23.0006 358.026 21.5006C357.126 20.5006 355.526 18.0006 353.026 13.8006H350.026C349.126 16.4006 345.626 17.8006 339.626 17.7006C339.026 17.7006 338.726 17.6006 338.726 17.2006C338.726 17.1006 339.026 16.5006 339.726 15.4006C340.326 14.2006 340.726 13.5006 340.726 13.1006C340.826 13.0006 340.826 12.9006 340.826 12.7006C340.826 12.3006 340.526 11.6006 340.126 10.7006L339.326 9.30064C339.326 8.70064 340.826 8.40063 343.926 8.40063C347.426 8.40063 349.426 9.70064 350.126 12.5006L364.726 11.8006C365.426 8.90064 367.826 7.40063 372.126 7.40063C372.426 7.40063 372.826 7.40064 373.226 7.50064C375.026 7.60064 375.926 7.80063 375.926 8.10063C375.926 7.90063 375.626 8.40063 375.126 9.40063C374.626 10.4006 374.426 11.3006 374.426 11.8006V12.3006C374.626 13.3006 375.126 14.3006 376.126 15.3006C376.126 15.5006 375.826 15.7006 375.326 15.9006C374.326 16.5006 373.026 16.7006 371.426 16.7006Z" fill="#F7923A"></path><path d="M422.926 50.3007C422.926 51.0007 421.826 51.3007 419.726 51.3007C419.226 51.3007 418.526 51.4007 417.526 51.5007C416.526 51.6007 415.826 51.7007 415.326 51.7007C414.026 51.7007 413.126 51.2007 412.926 50.2007C412.826 49.8007 412.726 48.8007 412.726 47.0007C412.726 45.5007 412.726 43.2007 412.926 40.1007C413.026 36.2007 413.126 34.5007 413.126 34.9007C413.126 34.3007 413.226 32.6007 413.426 30.0007C413.626 27.8007 413.626 26.1007 413.626 24.8007C413.626 19.2007 411.926 16.4007 408.626 16.4007C406.726 16.4007 405.426 17.6007 404.726 20.2007C404.326 21.5007 404.026 23.2007 403.826 25.3007C403.426 30.0007 403.226 32.9007 403.226 34.1007C403.226 37.1007 403.726 38.9007 404.626 39.5007C405.126 39.8007 405.426 40.1007 405.426 40.2007C405.426 40.4007 404.426 40.7007 402.526 41.0007C400.226 41.3007 398.926 41.4007 398.526 41.4007C396.926 41.4007 396.026 40.6007 395.626 39.0007C395.526 38.5007 395.426 37.0007 395.426 34.6007C395.426 27.4007 396.526 22.4007 398.926 19.7007C400.226 18.2007 402.426 17.0007 405.426 15.9007C408.226 15.0007 410.726 14.5007 413.026 14.5007C415.826 14.5007 417.926 15.4007 419.426 17.3007C420.826 19.0007 421.426 21.2007 421.326 24.0007V25.3007C421.226 29.2007 421.126 31.7007 421.026 32.9007L420.726 36.4007C420.526 39.7007 420.426 42.7007 420.426 45.7007V47.0007C420.426 47.5007 420.526 48.0007 420.826 48.6007C421.126 49.3007 421.426 49.7007 421.826 49.8007C422.626 49.8007 422.926 50.1007 422.926 50.3007Z" fill="#F7923A"></path><path d="M453.026 33.2007L451.526 36.0007C449.326 40.3007 447.526 44.0007 446.226 47.3007C446.026 47.7007 446.026 48.0007 446.026 48.3007C446.026 48.8007 446.226 49.1007 446.726 49.3007C446.926 49.4007 447.126 49.5007 447.126 49.7007C447.126 50.0007 446.726 50.2007 445.826 50.3007C442.626 50.8007 440.626 51.1007 439.726 51.1007C437.926 51.1007 436.826 50.4007 436.626 48.9007V48.7007C436.626 47.9007 437.326 46.1007 438.826 43.3007L440.526 40.3007C444.026 33.8007 445.826 29.8007 445.826 28.4007V28.0007C445.326 27.6007 444.526 27.4007 443.526 27.5007C443.226 27.5007 442.426 27.6007 441.226 27.7007C440.326 27.8007 439.626 27.9007 439.226 27.9007C438.426 27.9007 438.026 27.7007 438.026 27.2007L438.526 26.1007C439.126 24.8007 439.526 23.8007 439.826 23.4007C441.026 21.1007 441.726 19.0007 442.226 17.0007C441.826 15.7007 440.826 15.0007 439.226 15.0007C438.626 15.0007 438.026 15.1007 437.426 15.4007C436.626 15.7007 436.226 16.0007 436.226 16.4007C436.226 18.9007 435.326 20.9007 433.526 22.4007C431.726 23.9007 429.626 24.7007 427.026 24.7007C426.726 24.7007 426.426 24.7007 426.326 24.7007C425.826 24.7007 425.526 24.5007 425.526 24.3007L426.426 22.6007C427.026 21.5007 427.326 20.7007 427.426 20.2007C427.426 20.1007 427.526 19.9007 427.426 19.6007C427.426 19.2007 427.226 18.6007 427.026 17.8007C426.726 17.0007 426.626 16.4007 426.626 16.1007C426.626 15.8007 426.926 15.5007 427.426 15.4007C433.426 14.1007 438.026 13.5007 441.226 13.5007C444.726 13.5007 447.526 14.0007 449.526 15.1007C450.326 15.5007 450.726 16.3007 450.726 17.3007C450.726 18.1007 450.026 20.1007 448.726 23.5007C447.926 25.5007 447.526 26.5007 447.526 26.7007C447.526 27.2007 447.926 27.4007 448.626 27.3007C449.226 27.3007 450.026 27.2007 451.126 27.0007C452.226 26.8007 453.026 26.7007 453.626 26.7007C454.926 26.7007 455.626 27.1007 455.626 27.9007C455.126 28.6007 454.426 30.4007 453.026 33.2007Z" fill="#F7923A"></path><path d="M489.726 44.6006C489.526 47.0006 489.826 48.3006 490.626 48.6006C490.926 48.7006 491.026 48.8006 491.026 49.0006C491.026 49.4006 490.626 49.6006 489.726 49.8006C486.526 50.4006 484.626 50.7006 483.826 50.7006C481.926 50.7006 481.026 49.9006 481.026 48.3006V47.7006C481.026 46.7006 481.426 43.1006 482.226 37.1006C482.926 32.0006 483.226 28.7006 483.226 27.0006C483.226 25.2006 482.926 23.9006 482.526 23.1006C481.926 21.9006 480.726 21.3006 479.126 21.3006C477.126 21.3006 475.426 22.3006 473.926 24.4006C472.826 26.0006 472.026 27.9006 471.526 30.2006C472.526 30.0006 473.226 29.9006 473.726 29.9006C474.326 29.9006 474.626 30.1006 474.526 30.5006C474.526 30.7006 474.526 30.8006 474.426 30.9006C473.626 33.2006 473.126 34.8006 472.826 35.6006C471.926 38.7006 471.226 41.9006 470.626 45.2006C470.526 45.8006 470.526 46.4006 470.526 47.0006C470.526 48.1006 470.826 48.8006 471.426 49.0006C471.826 49.2006 472.026 49.3006 472.026 49.5006C472.026 49.9006 471.326 50.2006 469.826 50.4006C466.826 50.8006 465.226 51.0006 464.926 51.0006C463.026 51.0006 462.126 50.0006 462.126 47.8006C462.126 45.7006 462.526 43.0006 463.326 39.9006C464.226 36.6006 465.226 34.2006 466.426 32.5006C466.426 32.5006 466.426 32.5006 466.326 32.5006C466.226 32.5006 466.126 32.5006 465.826 32.5006L464.826 32.7006C463.926 32.8006 463.226 32.9006 462.826 32.9006C462.426 32.9006 462.226 32.8006 462.126 32.7006C462.026 32.6006 462.026 32.3006 462.026 31.9006C462.026 29.7006 463.526 27.1006 466.726 24.1006C466.126 24.1006 465.326 24.2006 464.126 24.5006C463.026 24.7006 462.126 24.9006 461.526 24.9006C460.926 24.9006 460.626 24.8006 460.526 24.6006C460.226 24.1006 460.026 22.9006 460.026 21.1006V20.1006C460.026 19.8006 460.026 19.3006 460.026 18.7006C460.026 18.0006 460.126 17.5006 460.126 17.2006V16.1006C460.126 13.6006 459.726 12.2006 459.026 12.0006C458.526 11.9006 458.226 11.7006 458.226 11.4006C458.226 11.1006 458.826 10.7006 460.126 10.3006C463.026 9.5006 465.226 9.10059 466.726 9.10059C467.826 9.10059 468.326 9.3006 468.426 9.8006C468.426 10.0006 468.426 10.4006 468.426 11.1006C468.426 11.5006 468.426 12.9006 468.326 15.3006C468.226 16.9006 468.226 18.5006 468.226 19.9006C468.226 21.3006 468.326 22.2006 468.526 22.7006C469.726 22.1006 471.426 21.4006 473.626 20.6006C476.526 19.6006 479.126 19.2006 481.426 19.2006C482.426 19.2006 483.226 19.3006 483.826 19.4006C486.426 19.9006 488.326 20.8006 489.426 21.9006C490.626 23.2006 491.226 25.1006 491.226 27.6006C491.226 29.1006 491.126 30.6006 491.026 32.0006C490.526 37.5006 490.026 41.6006 489.726 44.6006Z" fill="#F7923A"></path><path d="M510.567 156.188V179.548H507.83L495.101 161.207H494.872V179.548H492.044V156.188H494.781L507.556 174.575H507.784V156.188H510.567ZM526.904 172.385V162.028H529.596V179.548H526.904V176.582H526.722C526.311 177.472 525.672 178.229 524.805 178.852C523.939 179.468 522.844 179.776 521.52 179.776C520.425 179.776 519.452 179.537 518.6 179.058C517.749 178.571 517.08 177.841 516.593 176.868C516.106 175.887 515.863 174.651 515.863 173.161V162.028H518.555V172.978C518.555 174.256 518.912 175.275 519.627 176.035C520.349 176.795 521.269 177.176 522.387 177.176C523.056 177.176 523.737 177.004 524.429 176.662C525.129 176.32 525.714 175.795 526.186 175.088C526.665 174.381 526.904 173.48 526.904 172.385ZM534.526 179.548V162.028H537.127V164.674H537.31C537.629 163.807 538.207 163.104 539.043 162.564C539.88 162.024 540.823 161.754 541.872 161.754C542.07 161.754 542.317 161.758 542.614 161.766C542.91 161.773 543.134 161.785 543.287 161.8V164.537C543.195 164.515 542.986 164.48 542.659 164.435C542.34 164.381 542.001 164.355 541.644 164.355C540.792 164.355 540.032 164.534 539.363 164.891C538.701 165.241 538.176 165.727 537.789 166.351C537.408 166.967 537.218 167.67 537.218 168.461V179.548H534.526ZM555.195 162.028V164.309H546.115V162.028H555.195ZM548.762 157.83H551.453V174.529C551.453 175.29 551.564 175.86 551.784 176.24C552.012 176.613 552.301 176.864 552.651 176.993C553.008 177.115 553.385 177.176 553.78 177.176C554.077 177.176 554.32 177.16 554.51 177.13C554.7 177.092 554.853 177.062 554.967 177.039L555.514 179.457C555.332 179.525 555.077 179.594 554.75 179.662C554.423 179.738 554.008 179.776 553.507 179.776C552.746 179.776 552.001 179.613 551.271 179.286C550.549 178.959 549.948 178.461 549.469 177.792C548.997 177.122 548.762 176.278 548.762 175.259V157.83ZM570.285 172.385V162.028H572.977V179.548H570.285V176.582H570.103C569.692 177.472 569.053 178.229 568.187 178.852C567.32 179.468 566.225 179.776 564.901 179.776C563.806 179.776 562.833 179.537 561.981 179.058C561.13 178.571 560.461 177.841 559.974 176.868C559.487 175.887 559.244 174.651 559.244 173.161V162.028H561.936V172.978C561.936 174.256 562.293 175.275 563.008 176.035C563.73 176.795 564.651 177.176 565.768 177.176C566.438 177.176 567.118 177.004 567.81 176.662C568.51 176.32 569.095 175.795 569.567 175.088C570.046 174.381 570.285 173.48 570.285 172.385ZM577.908 179.548V162.028H580.508V164.674H580.691C581.01 163.807 581.588 163.104 582.424 162.564C583.261 162.024 584.204 161.754 585.253 161.754C585.451 161.754 585.698 161.758 585.995 161.766C586.291 161.773 586.516 161.785 586.668 161.8V164.537C586.576 164.515 586.367 164.48 586.04 164.435C585.721 164.381 585.382 164.355 585.025 164.355C584.173 164.355 583.413 164.534 582.744 164.891C582.082 165.241 581.558 165.727 581.17 166.351C580.79 166.967 580.599 167.67 580.599 168.461V179.548H577.908ZM589.859 179.548V162.028H592.55V179.548H589.859ZM591.227 159.108C590.703 159.108 590.25 158.929 589.87 158.572C589.497 158.214 589.311 157.785 589.311 157.283C589.311 156.781 589.497 156.351 589.87 155.994C590.25 155.637 590.703 155.458 591.227 155.458C591.752 155.458 592.201 155.637 592.573 155.994C592.953 156.351 593.144 156.781 593.144 157.283C593.144 157.785 592.953 158.214 592.573 158.572C592.201 158.929 591.752 159.108 591.227 159.108ZM600.173 169.009V179.548H597.481V162.028H600.081V164.766H600.31C600.72 163.876 601.344 163.161 602.18 162.621C603.017 162.074 604.096 161.8 605.42 161.8C606.606 161.8 607.644 162.043 608.534 162.53C609.423 163.009 610.115 163.739 610.609 164.72C611.104 165.693 611.351 166.925 611.351 168.416V179.548H608.659V168.598C608.659 167.222 608.302 166.149 607.587 165.381C606.872 164.606 605.891 164.218 604.644 164.218C603.785 164.218 603.017 164.404 602.34 164.777C601.671 165.15 601.142 165.693 600.754 166.408C600.367 167.123 600.173 167.99 600.173 169.009ZM623.342 186.483C622.041 186.483 620.924 186.316 619.988 185.981C619.053 185.654 618.274 185.221 617.65 184.681C617.034 184.149 616.544 183.578 616.179 182.97L618.323 181.464C618.566 181.784 618.874 182.149 619.247 182.559C619.62 182.978 620.129 183.339 620.775 183.643C621.429 183.955 622.285 184.111 623.342 184.111C624.756 184.111 625.923 183.768 626.844 183.084C627.764 182.4 628.224 181.327 628.224 179.867V176.309H627.996C627.798 176.628 627.516 177.023 627.151 177.495C626.794 177.959 626.277 178.373 625.6 178.738C624.931 179.096 624.026 179.274 622.886 179.274C621.471 179.274 620.201 178.94 619.076 178.271C617.958 177.601 617.072 176.628 616.418 175.351C615.772 174.073 615.449 172.522 615.449 170.697C615.449 168.902 615.764 167.34 616.395 166.009C617.026 164.67 617.905 163.636 619.03 162.906C620.156 162.169 621.456 161.8 622.931 161.8C624.072 161.8 624.977 161.99 625.646 162.37C626.323 162.743 626.84 163.169 627.197 163.648C627.562 164.119 627.843 164.507 628.041 164.811H628.315V162.028H630.916V180.05C630.916 181.556 630.573 182.78 629.889 183.723C629.212 184.673 628.3 185.369 627.151 185.81C626.011 186.259 624.741 186.483 623.342 186.483ZM623.251 176.856C624.33 176.856 625.243 176.609 625.988 176.115C626.733 175.621 627.3 174.91 627.688 173.982C628.075 173.054 628.269 171.944 628.269 170.651C628.269 169.389 628.079 168.275 627.699 167.309C627.319 166.343 626.756 165.587 626.011 165.039C625.266 164.492 624.346 164.218 623.251 164.218C622.11 164.218 621.159 164.507 620.399 165.085C619.646 165.663 619.08 166.438 618.699 167.412C618.327 168.385 618.14 169.465 618.14 170.651C618.14 171.868 618.331 172.944 618.711 173.879C619.099 174.807 619.669 175.537 620.422 176.069C621.182 176.594 622.125 176.856 623.251 176.856ZM645.242 179.548V156.188H648.071V177.039H658.93V179.548H645.242ZM662.945 179.548V162.028H665.636V179.548H662.945ZM664.313 159.108C663.789 159.108 663.336 158.929 662.956 158.572C662.583 158.214 662.397 157.785 662.397 157.283C662.397 156.781 662.583 156.351 662.956 155.994C663.336 155.637 663.789 155.458 664.313 155.458C664.838 155.458 665.287 155.637 665.659 155.994C666.039 156.351 666.23 156.781 666.23 157.283C666.23 157.785 666.039 158.214 665.659 158.572C665.287 158.929 664.838 159.108 664.313 159.108ZM673.076 173.161L673.031 169.83H673.578L681.243 162.028H684.574L676.407 170.286H676.179L673.076 173.161ZM670.567 179.548V156.188H673.259V179.548H670.567ZM681.699 179.548L674.856 170.879L676.772 169.009L685.121 179.548H681.699ZM694.663 179.913C692.975 179.913 691.518 179.54 690.294 178.795C689.077 178.042 688.138 176.993 687.477 175.647C686.823 174.294 686.496 172.72 686.496 170.925C686.496 169.13 686.823 167.549 687.477 166.18C688.138 164.804 689.058 163.731 690.237 162.963C691.423 162.188 692.807 161.8 694.389 161.8C695.301 161.8 696.203 161.952 697.092 162.256C697.982 162.56 698.792 163.055 699.522 163.739C700.252 164.416 700.833 165.313 701.267 166.431C701.7 167.549 701.917 168.925 701.917 170.56V171.701H688.412V169.374H699.18C699.18 168.385 698.982 167.503 698.586 166.727C698.199 165.952 697.644 165.34 696.921 164.891C696.206 164.442 695.362 164.218 694.389 164.218C693.317 164.218 692.389 164.484 691.606 165.016C690.83 165.541 690.233 166.226 689.815 167.07C689.397 167.914 689.188 168.819 689.188 169.784V171.336C689.188 172.659 689.416 173.78 689.872 174.7C690.336 175.613 690.978 176.309 691.8 176.788C692.621 177.259 693.575 177.495 694.663 177.495C695.37 177.495 696.009 177.396 696.579 177.198C697.157 176.993 697.655 176.689 698.073 176.286C698.491 175.875 698.815 175.366 699.043 174.757L701.643 175.487C701.37 176.37 700.91 177.145 700.263 177.814C699.617 178.476 698.818 178.993 697.868 179.366C696.917 179.731 695.849 179.913 694.663 179.913ZM714.133 158.697V156.188H731.653V158.697H724.308V179.548H721.479V158.697H714.133ZM738.346 169.009V179.548H735.654V156.188H738.346V164.766H738.574C738.985 163.861 739.601 163.142 740.422 162.61C741.251 162.07 742.353 161.8 743.73 161.8C744.924 161.8 745.969 162.039 746.867 162.518C747.764 162.99 748.46 163.716 748.954 164.697C749.456 165.67 749.707 166.91 749.707 168.416V179.548H747.015V168.598C747.015 167.206 746.654 166.13 745.931 165.37C745.216 164.602 744.224 164.218 742.954 164.218C742.072 164.218 741.281 164.404 740.582 164.777C739.89 165.15 739.342 165.693 738.939 166.408C738.544 167.123 738.346 167.99 738.346 169.009ZM761.977 179.913C760.289 179.913 758.833 179.54 757.608 178.795C756.392 178.042 755.453 176.993 754.791 175.647C754.137 174.294 753.81 172.72 753.81 170.925C753.81 169.13 754.137 167.549 754.791 166.18C755.453 164.804 756.373 163.731 757.551 162.963C758.738 162.188 760.122 161.8 761.703 161.8C762.616 161.8 763.517 161.952 764.407 162.256C765.296 162.56 766.106 163.055 766.836 163.739C767.566 164.416 768.148 165.313 768.581 166.431C769.015 167.549 769.231 168.925 769.231 170.56V171.701H755.726V169.374H766.494C766.494 168.385 766.296 167.503 765.901 166.727C765.513 165.952 764.958 165.34 764.236 164.891C763.521 164.442 762.677 164.218 761.703 164.218C760.631 164.218 759.703 164.484 758.92 165.016C758.145 165.541 757.548 166.226 757.129 167.07C756.711 167.914 756.502 168.819 756.502 169.784V171.336C756.502 172.659 756.73 173.78 757.186 174.7C757.65 175.613 758.293 176.309 759.114 176.788C759.935 177.259 760.89 177.495 761.977 177.495C762.684 177.495 763.323 177.396 763.893 177.198C764.471 176.993 764.969 176.689 765.388 176.286C765.806 175.875 766.129 175.366 766.357 174.757L768.958 175.487C768.684 176.37 768.224 177.145 767.578 177.814C766.931 178.476 766.133 178.993 765.182 179.366C764.232 179.731 763.163 179.913 761.977 179.913ZM782.725 179.548V156.188H790.618C792.443 156.188 793.941 156.5 795.112 157.123C796.283 157.739 797.15 158.587 797.713 159.667C798.276 160.747 798.557 161.975 798.557 163.351C798.557 164.727 798.276 165.948 797.713 167.013C797.15 168.077 796.287 168.914 795.124 169.522C793.96 170.123 792.474 170.423 790.664 170.423H784.276V167.868H790.573C791.82 167.868 792.824 167.686 793.584 167.321C794.352 166.956 794.907 166.438 795.249 165.769C795.599 165.092 795.774 164.286 795.774 163.351C795.774 162.416 795.599 161.598 795.249 160.899C794.9 160.199 794.341 159.659 793.573 159.279C792.805 158.891 791.789 158.697 790.527 158.697H785.554V179.548H782.725ZM793.721 169.054L799.47 179.548H796.185L790.527 169.054H793.721ZM802.906 179.548V162.028H805.598V179.548H802.906ZM804.275 159.108C803.75 159.108 803.297 158.929 802.917 158.572C802.545 158.214 802.358 157.785 802.358 157.283C802.358 156.781 802.545 156.351 802.917 155.994C803.297 155.637 803.75 155.458 804.275 155.458C804.799 155.458 805.248 155.637 805.62 155.994C806.001 156.351 806.191 156.781 806.191 157.283C806.191 157.785 806.001 158.214 805.62 158.572C805.248 158.929 804.799 159.108 804.275 159.108ZM824.854 162.028L818.376 179.548H815.638L809.159 162.028H812.079L816.916 175.989H817.098L821.934 162.028H824.854ZM835.126 179.913C833.438 179.913 831.981 179.54 830.757 178.795C829.541 178.042 828.601 176.993 827.94 175.647C827.286 174.294 826.959 172.72 826.959 170.925C826.959 169.13 827.286 167.549 827.94 166.18C828.601 164.804 829.522 163.731 830.7 162.963C831.886 162.188 833.27 161.8 834.852 161.8C835.765 161.8 836.666 161.952 837.555 162.256C838.445 162.56 839.255 163.055 839.985 163.739C840.715 164.416 841.297 165.313 841.73 166.431C842.164 167.549 842.38 168.925 842.38 170.56V171.701H828.875V169.374H839.643C839.643 168.385 839.445 167.503 839.05 166.727C838.662 165.952 838.107 165.34 837.384 164.891C836.669 164.442 835.825 164.218 834.852 164.218C833.78 164.218 832.852 164.484 832.069 165.016C831.293 165.541 830.696 166.226 830.278 167.07C829.86 167.914 829.651 168.819 829.651 169.784V171.336C829.651 172.659 829.879 173.78 830.335 174.7C830.799 175.613 831.442 176.309 832.263 176.788C833.084 177.259 834.038 177.495 835.126 177.495C835.833 177.495 836.472 177.396 837.042 177.198C837.62 176.993 838.118 176.689 838.536 176.286C838.955 175.875 839.278 175.366 839.506 174.757L842.106 175.487C841.833 176.37 841.373 177.145 840.726 177.814C840.08 178.476 839.282 178.993 838.331 179.366C837.38 179.731 836.312 179.913 835.126 179.913ZM846.475 179.548V162.028H849.076V164.674H849.258C849.578 163.807 850.156 163.104 850.992 162.564C851.828 162.024 852.771 161.754 853.821 161.754C854.018 161.754 854.266 161.758 854.562 161.766C854.859 161.773 855.083 161.785 855.235 161.8V164.537C855.144 164.515 854.935 164.48 854.608 164.435C854.288 164.381 853.95 164.355 853.593 164.355C852.741 164.355 851.981 164.534 851.311 164.891C850.65 165.241 850.125 165.727 849.737 166.351C849.357 166.967 849.167 167.67 849.167 168.461V179.548H846.475Z" fill="#F7923A"></path></svg>